<mxfile host="app.diagrams.net" modified="2024-02-12T14:49:31.420Z" agent="Mozilla/5.0 (X11; Linux x86_64; rv:122.0) Gecko/20100101 Firefox/122.0" version="23.1.2" etag="eZ8_Zsjlfxt1Ecf9vTRH" type="github">
  <diagram name="Page-1" id="jvpdWUpX-VuZFocykEPA">
    <mxGraphModel>
      <root>
        <mxCell id="0" />
        <mxCell id="1" parent="0" />
      </root>
    </mxGraphModel>
  </diagram>
</mxfile>
